# xmcd
#
# Track frame offsets:
#	150
#	2532
#	6586
#	39378
#	63611
#	88472
#	109297
#	129711
#	156430
#	175078
#	187272
#
# Disc length: 2601 seconds
#
# Revision: 0
# Processed by: cddbd v1.5.1PL0 Copyright (c) Steve Scherf et al.
# Submitted via: dBpowerAMP V4.0
#
DISCID=9d0a270b
DTITLE=Mel Brown - B3 Organ Quartet - Live at The Britt Festival 
DYEAR=2004
DGENRE=Blues
TTITLE0=Intro 
TTITLE1=Church
TTITLE2=JD's Groove
TTITLE3=Sunshine Alley
TTITLE4=Soulful Drums
TTITLE5=Mighty Burner
TTITLE6=Blues For GB
TTITLE7=I Wish
TTITLE8=Kiko
TTITLE9=The Peeper
TTITLE10=Mak Attack
EXTD=
EXTT0=
EXTT1=
EXTT2=
EXTT3=
EXTT4=
EXTT5=
EXTT6=
EXTT7=
EXTT8=
EXTT9=
EXTT10=
PLAYORDER=
